{"title":"Free.the.Nipple.2014.DVDRip.x264-MenaceIISociety","uid":12008096,"size":987033747,"categoryP":"video","categoryS":"movies","magnet":"?xt=urn:btih:66a9de49db0b301ab6d03614d5b39b2863450673&amp;dn=Free.the.Nipple.2014.DVDRip.x264-MenaceIISociety&amp;tr=udp%3A%2F%2Ftracker.openbittorrent.com%3A80&amp;tr=udp%3A%2F%2Fopen.demonii.com%3A1337&amp;tr=udp%3A%2F%2Ftracker.coppersurfer.tk%3A6969&amp;tr=udp%3A%2F%2Fexodus.desync.com%3A6969","seeders":11,"leechers":5,"uploader":"xxxlavalxxx","files":4,"time":1434021177,"description":" &lt;a href=&quot;http://extraimago.com/image/jye&quot; rel=&quot;nofollow&quot; target=&quot;_NEW&quot;&gt;http://extraimago.com/image/jye&lt;/a&gt;\n\n[url]http://www.imdb.com/title/tt2298394/[/url]\n\n\nAn army of passionate women launch a revolution to &quot;Free the Nipple&quot; and decriminalize the female body. Based on a true story, this mass movement of topless women, armed with First Amendment lawyers, graffiti installations and national publicity stunts, invade New York City to protest the backwards censorship laws in the USA.\n\nDirector: Lina Esco\nWriters: Lina Esco (story), Hunter Richards (story)\nStars: Lina Esco, Lola Kirke, Monique Coleman\nGenres: Comedy | Drama\nCountry: USA\nLanguage: English\n\n\nFree.the.Nipple.2014.DVDRip.x264-MenaceIISociety\n &lt;a href=&quot;\nhttp://www.imdb.com/title/tt2298394/&quot; rel=&quot;nofollow&quot; target=&quot;_NEW&quot;&gt;\nhttp://www.imdb.com/title/tt2298394/&lt;/a&gt;\nSource: NTSC.DVD5 [THANKS]\n\nGeneral\nComplete name: Free.the.Nipple.2014.DVDRip.x264-MenaceIISociety.mkv\nFormat: Matroska\nFormat version: Version 2\nFile size: 921 MiB\nDuration: 1h 18mn\nOverall bit rate mode: Variable\nOverall bit rate: 1 631 Kbps\nEncoded date: UTC 2015-06-11 04:58:16\nWriting application: mkvmerge v7.9.0 ('Birds') 32bit\nWriting library: libebml v1.3.1 + libmatroska v1.4.2\n\nVideo\nID: 1\nFormat: AVC\nFormat/Info: Advanced Video Codec\nFormat profile: &lt;a class=&quot;__cf_email__&quot; href=&quot;/cdn-cgi/l/email-protection&quot; data-cfemail=&quot;7830111f1038344c5649&quot;&gt;[email&amp;#160;protected]&lt;/a&gt;&lt;script data-cfhash='f9e31' type=&quot;text/javascript&quot;&gt;\n/* &lt;![CDATA[ */!function(){try{var t=&quot;currentScript&quot;in document?document.currentScript:function(){for(var t=document.getElementsByTagName(&quot;script&quot;),e=t.length;e--;)if(t[e].getAttribute(&quot;data-cfhash&quot;))return t[e]}();if(t&amp;&amp;t.previousSibling){var e,r,n,i,c=t.previousSibling,a=c.getAttribute(&quot;data-cfemail&quot;);if(a){for(e=&quot;&quot;,r=parseInt(a.substr(0,2),16),n=2;a.length-n;n+=2)i=parseInt(a.substr(n,2),16)^r,e+=String.fromCharCode(i);e=document.createTextNode(e),c.parentNode.replaceChild(e,c)}t.parentNode.removeChild(t);}}catch(u){}}()/* ]]&gt; */&lt;/script&gt;\nFormat settings, CABAC: Yes\nFormat settings, ReFrames: 3 frames\nCodec ID: V_MPEG4/ISO/AVC\nDuration: 1h 18mn\nBit rate mode: Variable\nBit rate: 1 151 Kbps\nMaximum bit rate: 40.0 Mbps\nWidth: 720 pixels\nHeight: 304 pixels\nDisplay aspect ratio: 2.35:1\nFrame rate mode: Constant\nFrame rate: 23.976 fps\nColor space: YUV\nChroma subsampling: 4:2:0\nBit depth: 8 bits\nScan type: Progressive\nBits/(Pixel*Frame): 0.219\nStream size: 650 MiB (71%)\nWriting library: x264 core 146 r2538 121396c\n\nAudio\nID: 2\nFormat: AC-3\nFormat/Info: Audio Coding 3\nMode extension: CM (complete main)\nFormat settings, Endianness: Big\nCodec ID: A_AC3\nDuration: 1h 18mn\nBit rate mode: Constant\nBit rate: 448 Kbps\nChannel count: 6 channels\nChannel positions: Front: L C R, Side: L R, LFE\nSampling rate: 48.0 KHz\nBit depth: 16 bits\nCompression mode: Lossy\nStream size: 253 MiB (27%)\nLanguage: English\nDefault: Yes\n\n &lt;a href=&quot;\nhttp://extraimago.com/image/jy4&quot; rel=&quot;nofollow&quot; target=&quot;_NEW&quot;&gt;\nhttp://extraimago.com/image/jy4&lt;/a&gt; &lt;a href=&quot;\nhttp://extraimago.com/image/jyB&quot; rel=&quot;nofollow&quot; target=&quot;_NEW&quot;&gt;\nhttp://extraimago.com/image/jyB&lt;/a&gt; &lt;a href=&quot;\nhttp://extraimago.com/image/jyC&quot; rel=&quot;nofollow&quot; target=&quot;_NEW&quot;&gt;\nhttp://extraimago.com/image/jyC&lt;/a&gt; &lt;a href=&quot;\nhttp://extraimago.com/image/jyY&quot; rel=&quot;nofollow&quot; target=&quot;_NEW&quot;&gt;\nhttp://extraimago.com/image/jyY&lt;/a&gt; &lt;a href=&quot;\nhttp://extraimago.com/image/jyp&quot; rel=&quot;nofollow&quot; target=&quot;_NEW&quot;&gt;\nhttp://extraimago.com/image/jyp&lt;/a&gt;","torrent":{"xt":"urn:btih:66a9de49db0b301ab6d03614d5b39b2863450673","amp;dn":"Free.the.Nipple.2014.DVDRip.x264-MenaceIISociety","amp;tr":["udp%3A%2F%2Ftracker.openbittorrent.com%3A80","udp%3A%2F%2Fopen.demonii.com%3A1337","udp%3A%2F%2Ftracker.coppersurfer.tk%3A6969","udp%3A%2F%2Fexodus.desync.com%3A6969"],"infoHash":"66a9de49db0b301ab6d03614d5b39b2863450673","infoHashBuffer":{"type":"Buffer","data":[102,169,222,73,219,11,48,26,182,208,54,20,213,179,155,40,99,69,6,115]},"announce":[],"urlList":[]}}